<svg xmlns="http://www.w3.org/2000/svg" viewBox="0 0 512 512" width="512" height="512">
  <defs>
    <linearGradient id="gold-grad" x1="0%" y1="0%" x2="100%" y2="100%">
      <stop offset="0%" style="stop-color:#C9A857;stop-opacity:1" />
      <stop offset="100%" style="stop-color:#AA8A39;stop-opacity:1" />
    </linearGradient>
  </defs>
  <path fill="url(#gold-grad)" d="M256,0C114.6,0,0,114.6,0,256s114.6,256,256,256,256-114.6,256-256S397.4,0,256,0Zm0,472c-119.1,0-216-96.9-216-216S136.9,40,256,40s216,96.9,216,216-96.9,216-216,216Z"/>
  <path fill="url(#gold-grad)" d="M256,80L120,160V264c0,83.4,59.8,160.2,136,184,76.2-23.8,136-100.6,136-184V160L256,80Zm0,336c-53.8-21.4-96-79.6-96-152V185l96-56.5,96,56.5V264C352,336.4,309.8,394.6,256,416Z"/>
  <path fill="url(#gold-grad)" d="M256,210l-45,45,15,15,30-30,65,65,15-15Z" opacity="0.8"/>
</svg>
